<svg xmlns="http://www.w3.org/2000/svg" xmlns:xlink="http://www.w3.org/1999/xlink" width="500" zoomAndPan="magnify" viewBox="0 0 375 74.999997" height="100" preserveAspectRatio="xMidYMid meet" version="1.0"><defs><g><g id="id1"/></g><clipPath id="id2"><path d="M 30.367188 0 L 70.867188 0 L 70.867188 75 L 30.367188 75 Z M 30.367188 0 " clip-rule="nonzero"/></clipPath><clipPath id="id3"><path d="M 0 32.550781 L 39.75 32.550781 L 39.75 72.300781 L 0 72.300781 Z M 0 32.550781 " clip-rule="nonzero"/></clipPath></defs><path fill="rgb(100%, 74.508667%, 4.309082%)" d="M 367.46875 46.324219 C 364.15625 46.324219 361.46875 49.007812 361.46875 52.324219 C 361.46875 55.636719 364.15625 58.324219 367.46875 58.324219 C 370.78125 58.324219 373.46875 55.636719 373.46875 52.324219 C 373.46875 49.007812 370.78125 46.324219 367.46875 46.324219 " fill-opacity="1" fill-rule="nonzero"/><g fill="rgb(0%, 0%, 0%)" fill-opacity="1"><g transform="translate(15.316548, 57.431266)"><g/></g></g><g fill="rgb(0%, 0%, 0%)" fill-opacity="1"><g transform="translate(33.760733, 57.431266)"><g><path d="M 16.96875 0.5625 C 14.25 0.5625 11.832031 0.222656 9.71875 -0.453125 C 7.613281 -1.128906 5.640625 -2.28125 3.796875 -3.90625 C 2.773438 -4.8125 2.265625 -5.8125 2.265625 -6.90625 C 2.265625 -7.769531 2.582031 -8.53125 3.21875 -9.1875 C 3.863281 -9.851562 4.640625 -10.1875 5.546875 -10.1875 C 6.265625 -10.1875 6.90625 -9.957031 7.46875 -9.5 C 8.976562 -8.257812 10.445312 -7.351562 11.875 -6.78125 C 13.3125 -6.21875 15.007812 -5.9375 16.96875 -5.9375 C 19.082031 -5.9375 20.898438 -6.40625 22.421875 -7.34375 C 23.953125 -8.289062 24.71875 -9.460938 24.71875 -10.859375 C 24.71875 -12.554688 23.960938 -13.882812 22.453125 -14.84375 C 20.941406 -15.8125 18.546875 -16.539062 15.265625 -17.03125 C 7.015625 -18.226562 2.890625 -22.070312 2.890625 -28.5625 C 2.890625 -30.9375 3.507812 -33 4.75 -34.75 C 6 -36.507812 7.695312 -37.847656 9.84375 -38.765625 C 11.988281 -39.691406 14.382812 -40.15625 17.03125 -40.15625 C 19.40625 -40.15625 21.632812 -39.796875 23.71875 -39.078125 C 25.8125 -38.367188 27.554688 -37.425781 28.953125 -36.25 C 30.046875 -35.382812 30.59375 -34.390625 30.59375 -33.265625 C 30.59375 -32.390625 30.269531 -31.625 29.625 -30.96875 C 28.988281 -30.3125 28.238281 -29.984375 27.375 -29.984375 C 26.8125 -29.984375 26.300781 -30.148438 25.84375 -30.484375 C 24.863281 -31.273438 23.5 -32 21.75 -32.65625 C 20 -33.320312 18.425781 -33.65625 17.03125 -33.65625 C 14.65625 -33.65625 12.816406 -33.210938 11.515625 -32.328125 C 10.210938 -31.441406 9.5625 -30.28125 9.5625 -28.84375 C 9.5625 -27.226562 10.226562 -26.003906 11.5625 -25.171875 C 12.90625 -24.335938 15.007812 -23.660156 17.875 -23.140625 C 21.113281 -22.566406 23.703125 -21.835938 25.640625 -20.953125 C 27.585938 -20.066406 29.050781 -18.859375 30.03125 -17.328125 C 31.007812 -15.804688 31.5 -13.78125 31.5 -11.25 C 31.5 -8.875 30.828125 -6.789062 29.484375 -5 C 28.148438 -3.207031 26.367188 -1.832031 24.140625 -0.875 C 21.921875 0.0820312 19.53125 0.5625 16.96875 0.5625 Z M 16.96875 0.5625 "/></g></g></g><g fill="rgb(0%, 0%, 0%)" fill-opacity="1"><g transform="translate(70.185626, 57.431266)"><g><path d="M 38.578125 -30.828125 C 42.304688 -30.828125 44.882812 -29.6875 46.3125 -27.40625 C 47.75 -25.125 48.46875 -21.96875 48.46875 -17.9375 L 48.46875 -3.453125 C 48.46875 -2.472656 48.144531 -1.648438 47.5 -0.984375 C 46.863281 -0.328125 46.054688 0 45.078125 0 C 44.097656 0 43.285156 -0.328125 42.640625 -0.984375 C 42.003906 -1.648438 41.6875 -2.472656 41.6875 -3.453125 L 41.6875 -17.9375 C 41.6875 -20.007812 41.28125 -21.640625 40.46875 -22.828125 C 39.65625 -24.015625 38.234375 -24.609375 36.203125 -24.609375 C 34.085938 -24.609375 32.4375 -23.972656 31.25 -22.703125 C 30.0625 -21.441406 29.46875 -19.851562 29.46875 -17.9375 L 29.46875 -3.453125 C 29.46875 -2.472656 29.144531 -1.648438 28.5 -0.984375 C 27.863281 -0.328125 27.054688 0 26.078125 0 C 25.097656 0 24.285156 -0.328125 23.640625 -0.984375 C 23.003906 -1.648438 22.6875 -2.472656 22.6875 -3.453125 L 22.6875 -17.9375 C 22.6875 -20.007812 22.28125 -21.640625 21.46875 -22.828125 C 20.65625 -24.015625 19.226562 -24.609375 17.1875 -24.609375 C 15.082031 -24.609375 13.4375 -23.972656 12.25 -22.703125 C 11.0625 -21.441406 10.46875 -19.851562 10.46875 -17.9375 L 10.46875 -3.453125 C 10.46875 -2.472656 10.144531 -1.648438 9.5 -0.984375 C 8.863281 -0.328125 8.050781 0 7.0625 0 C 6.082031 0 5.269531 -0.328125 4.625 -0.984375 C 3.988281 -1.648438 3.671875 -2.472656 3.671875 -3.453125 L 3.671875 -26.8125 C 3.671875 -27.789062 3.988281 -28.609375 4.625 -29.265625 C 5.269531 -29.929688 6.082031 -30.265625 7.0625 -30.265625 C 8.050781 -30.265625 8.863281 -29.929688 9.5 -29.265625 C 10.144531 -28.609375 10.46875 -27.789062 10.46875 -26.8125 L 10.46875 -25.90625 C 11.476562 -27.257812 12.765625 -28.414062 14.328125 -29.375 C 15.898438 -30.34375 17.648438 -30.828125 19.578125 -30.828125 C 24.328125 -30.828125 27.359375 -28.753906 28.671875 -24.609375 C 29.546875 -26.191406 30.859375 -27.625 32.609375 -28.90625 C 34.359375 -30.1875 36.347656 -30.828125 38.578125 -30.828125 Z M 38.578125 -30.828125 "/></g></g></g><g fill="rgb(0%, 0%, 0%)" fill-opacity="1"><g transform="translate(124.991961, 57.431266)"><g><path d="M 28.171875 -30.828125 C 29.148438 -30.828125 29.957031 -30.503906 30.59375 -29.859375 C 31.238281 -29.222656 31.5625 -28.394531 31.5625 -27.375 L 31.5625 -3.453125 C 31.5625 -2.472656 31.238281 -1.648438 30.59375 -0.984375 C 29.957031 -0.328125 29.148438 0 28.171875 0 C 27.191406 0 26.390625 -0.316406 25.765625 -0.953125 C 25.140625 -1.597656 24.8125 -2.410156 24.78125 -3.390625 C 23.832031 -2.296875 22.554688 -1.363281 20.953125 -0.59375 C 19.347656 0.175781 17.660156 0.5625 15.890625 0.5625 C 13.285156 0.5625 10.925781 -0.101562 8.8125 -1.4375 C 6.707031 -2.78125 5.039062 -4.640625 3.8125 -7.015625 C 2.59375 -9.390625 1.984375 -12.085938 1.984375 -15.109375 C 1.984375 -18.117188 2.582031 -20.820312 3.78125 -23.21875 C 4.988281 -25.613281 6.640625 -27.476562 8.734375 -28.8125 C 10.828125 -30.15625 13.140625 -30.828125 15.671875 -30.828125 C 17.472656 -30.828125 19.164062 -30.492188 20.75 -29.828125 C 22.34375 -29.171875 23.6875 -28.332031 24.78125 -27.3125 L 24.78125 -27.375 C 24.78125 -28.351562 25.097656 -29.171875 25.734375 -29.828125 C 26.378906 -30.492188 27.191406 -30.828125 28.171875 -30.828125 Z M 16.75 -5.65625 C 19.195312 -5.65625 21.191406 -6.550781 22.734375 -8.34375 C 24.285156 -10.132812 25.0625 -12.390625 25.0625 -15.109375 C 25.0625 -17.816406 24.285156 -20.078125 22.734375 -21.890625 C 21.191406 -23.703125 19.195312 -24.609375 16.75 -24.609375 C 14.332031 -24.609375 12.347656 -23.703125 10.796875 -21.890625 C 9.253906 -20.078125 8.484375 -17.816406 8.484375 -15.109375 C 8.484375 -12.390625 9.242188 -10.132812 10.765625 -8.34375 C 12.296875 -6.550781 14.289062 -5.65625 16.75 -5.65625 Z M 16.75 -5.65625 "/></g></g></g><g fill="rgb(0%, 0%, 0%)" fill-opacity="1"><g transform="translate(162.887357, 57.431266)"><g><path d="M 19.40625 -30.828125 C 20.53125 -30.828125 21.476562 -30.503906 22.25 -29.859375 C 23.03125 -29.222656 23.421875 -28.472656 23.421875 -27.609375 C 23.421875 -26.429688 23.117188 -25.550781 22.515625 -24.96875 C 21.910156 -24.382812 21.191406 -24.09375 20.359375 -24.09375 C 19.796875 -24.09375 19.15625 -24.222656 18.4375 -24.484375 C 18.320312 -24.523438 18.066406 -24.601562 17.671875 -24.71875 C 17.273438 -24.832031 16.851562 -24.890625 16.40625 -24.890625 C 15.425781 -24.890625 14.484375 -24.585938 13.578125 -23.984375 C 12.671875 -23.378906 11.925781 -22.460938 11.34375 -21.234375 C 10.757812 -20.015625 10.46875 -18.554688 10.46875 -16.859375 L 10.46875 -3.453125 C 10.46875 -2.472656 10.144531 -1.648438 9.5 -0.984375 C 8.863281 -0.328125 8.050781 0 7.0625 0 C 6.082031 0 5.269531 -0.328125 4.625 -0.984375 C 3.988281 -1.648438 3.671875 -2.472656 3.671875 -3.453125 L 3.671875 -26.8125 C 3.671875 -27.789062 3.988281 -28.609375 4.625 -29.265625 C 5.269531 -29.929688 6.082031 -30.265625 7.0625 -30.265625 C 8.050781 -30.265625 8.863281 -29.929688 9.5 -29.265625 C 10.144531 -28.609375 10.46875 -27.789062 10.46875 -26.8125 L 10.46875 -26.078125 C 11.332031 -27.617188 12.570312 -28.796875 14.1875 -29.609375 C 15.8125 -30.421875 17.550781 -30.828125 19.40625 -30.828125 Z M 19.40625 -30.828125 "/></g></g></g><g fill="rgb(0%, 0%, 0%)" fill-opacity="1"><g transform="translate(190.093202, 57.431266)"><g><path d="M 18.265625 -6.390625 C 18.796875 -6.390625 19.273438 -6.132812 19.703125 -5.625 C 20.140625 -5.113281 20.359375 -4.445312 20.359375 -3.625 C 20.359375 -2.601562 19.800781 -1.742188 18.6875 -1.046875 C 17.582031 -0.347656 16.332031 0 14.9375 0 C 12.59375 0 10.617188 -0.5 9.015625 -1.5 C 7.421875 -2.5 6.625 -4.617188 6.625 -7.859375 L 6.625 -23.46875 L 4.015625 -23.46875 C 3.109375 -23.46875 2.351562 -23.769531 1.75 -24.375 C 1.144531 -24.976562 0.84375 -25.734375 0.84375 -26.640625 C 0.84375 -27.503906 1.144531 -28.226562 1.75 -28.8125 C 2.351562 -29.394531 3.109375 -29.6875 4.015625 -29.6875 L 6.625 -29.6875 L 6.625 -33.3125 C 6.625 -34.289062 6.953125 -35.109375 7.609375 -35.765625 C 8.265625 -36.429688 9.082031 -36.765625 10.0625 -36.765625 C 11.007812 -36.765625 11.800781 -36.429688 12.4375 -35.765625 C 13.082031 -35.109375 13.40625 -34.289062 13.40625 -33.3125 L 13.40625 -29.6875 L 17.421875 -29.6875 C 18.328125 -29.6875 19.082031 -29.382812 19.6875 -28.78125 C 20.289062 -28.1875 20.59375 -27.4375 20.59375 -26.53125 C 20.59375 -25.664062 20.289062 -24.9375 19.6875 -24.34375 C 19.082031 -23.757812 18.328125 -23.46875 17.421875 -23.46875 L 13.40625 -23.46875 L 13.40625 -8.140625 C 13.40625 -7.347656 13.613281 -6.769531 14.03125 -6.40625 C 14.445312 -6.050781 15.007812 -5.875 15.71875 -5.875 C 16.019531 -5.875 16.4375 -5.953125 16.96875 -6.109375 C 17.414062 -6.296875 17.847656 -6.390625 18.265625 -6.390625 Z M 18.265625 -6.390625 "/></g></g></g><g fill="rgb(0%, 0%, 0%)" fill-opacity="1"><g transform="translate(215.885085, 57.431266)"><g><path d="M 16.96875 0.5625 C 14.25 0.5625 11.832031 0.222656 9.71875 -0.453125 C 7.613281 -1.128906 5.640625 -2.28125 3.796875 -3.90625 C 2.773438 -4.8125 2.265625 -5.8125 2.265625 -6.90625 C 2.265625 -7.769531 2.582031 -8.53125 3.21875 -9.1875 C 3.863281 -9.851562 4.640625 -10.1875 5.546875 -10.1875 C 6.265625 -10.1875 6.90625 -9.957031 7.46875 -9.5 C 8.976562 -8.257812 10.445312 -7.351562 11.875 -6.78125 C 13.3125 -6.21875 15.007812 -5.9375 16.96875 -5.9375 C 19.082031 -5.9375 20.898438 -6.40625 22.421875 -7.34375 C 23.953125 -8.289062 24.71875 -9.460938 24.71875 -10.859375 C 24.71875 -12.554688 23.960938 -13.882812 22.453125 -14.84375 C 20.941406 -15.8125 18.546875 -16.539062 15.265625 -17.03125 C 7.015625 -18.226562 2.890625 -22.070312 2.890625 -28.5625 C 2.890625 -30.9375 3.507812 -33 4.75 -34.75 C 6 -36.507812 7.695312 -37.847656 9.84375 -38.765625 C 11.988281 -39.691406 14.382812 -40.15625 17.03125 -40.15625 C 19.40625 -40.15625 21.632812 -39.796875 23.71875 -39.078125 C 25.8125 -38.367188 27.554688 -37.425781 28.953125 -36.25 C 30.046875 -35.382812 30.59375 -34.390625 30.59375 -33.265625 C 30.59375 -32.390625 30.269531 -31.625 29.625 -30.96875 C 28.988281 -30.3125 28.238281 -29.984375 27.375 -29.984375 C 26.8125 -29.984375 26.300781 -30.148438 25.84375 -30.484375 C 24.863281 -31.273438 23.5 -32 21.75 -32.65625 C 20 -33.320312 18.425781 -33.65625 17.03125 -33.65625 C 14.65625 -33.65625 12.816406 -33.210938 11.515625 -32.328125 C 10.210938 -31.441406 9.5625 -30.28125 9.5625 -28.84375 C 9.5625 -27.226562 10.226562 -26.003906 11.5625 -25.171875 C 12.90625 -24.335938 15.007812 -23.660156 17.875 -23.140625 C 21.113281 -22.566406 23.703125 -21.835938 25.640625 -20.953125 C 27.585938 -20.066406 29.050781 -18.859375 30.03125 -17.328125 C 31.007812 -15.804688 31.5 -13.78125 31.5 -11.25 C 31.5 -8.875 30.828125 -6.789062 29.484375 -5 C 28.148438 -3.207031 26.367188 -1.832031 24.140625 -0.875 C 21.921875 0.0820312 19.53125 0.5625 16.96875 0.5625 Z M 16.96875 0.5625 "/></g></g></g><g fill="rgb(0%, 0%, 0%)" fill-opacity="1"><g transform="translate(252.309974, 57.431266)"><g><path d="M 19.578125 -30.828125 C 23.304688 -30.828125 25.882812 -29.6875 27.3125 -27.40625 C 28.75 -25.125 29.46875 -21.96875 29.46875 -17.9375 L 29.46875 -3.453125 C 29.46875 -2.472656 29.144531 -1.648438 28.5 -0.984375 C 27.863281 -0.328125 27.054688 0 26.078125 0 C 25.097656 0 24.285156 -0.328125 23.640625 -0.984375 C 23.003906 -1.648438 22.6875 -2.472656 22.6875 -3.453125 L 22.6875 -17.9375 C 22.6875 -20.007812 22.28125 -21.640625 21.46875 -22.828125 C 20.65625 -24.015625 19.226562 -24.609375 17.1875 -24.609375 C 15.082031 -24.609375 13.4375 -23.972656 12.25 -22.703125 C 11.0625 -21.441406 10.46875 -19.851562 10.46875 -17.9375 L 10.46875 -3.453125 C 10.46875 -2.472656 10.144531 -1.648438 9.5 -0.984375 C 8.863281 -0.328125 8.050781 0 7.0625 0 C 6.082031 0 5.269531 -0.328125 4.625 -0.984375 C 3.988281 -1.648438 3.671875 -2.472656 3.671875 -3.453125 L 3.671875 -38.40625 C 3.671875 -39.382812 3.988281 -40.203125 4.625 -40.859375 C 5.269531 -41.523438 6.082031 -41.859375 7.0625 -41.859375 C 8.050781 -41.859375 8.863281 -41.523438 9.5 -40.859375 C 10.144531 -40.203125 10.46875 -39.382812 10.46875 -38.40625 L 10.46875 -25.90625 C 11.476562 -27.257812 12.765625 -28.414062 14.328125 -29.375 C 15.898438 -30.34375 17.648438 -30.828125 19.578125 -30.828125 Z M 19.578125 -30.828125 "/></g></g></g><g fill="rgb(0%, 0%, 0%)" fill-opacity="1"><g transform="translate(288.112718, 57.431266)"><g><path d="M 32.75 -15.109375 C 32.75 -12.085938 32.066406 -9.378906 30.703125 -6.984375 C 29.347656 -4.585938 27.492188 -2.726562 25.140625 -1.40625 C 22.785156 -0.09375 20.191406 0.5625 17.359375 0.5625 C 14.492188 0.5625 11.890625 -0.09375 9.546875 -1.40625 C 7.210938 -2.726562 5.367188 -4.585938 4.015625 -6.984375 C 2.660156 -9.378906 1.984375 -12.085938 1.984375 -15.109375 C 1.984375 -18.117188 2.660156 -20.820312 4.015625 -23.21875 C 5.367188 -25.613281 7.210938 -27.476562 9.546875 -28.8125 C 11.890625 -30.15625 14.492188 -30.828125 17.359375 -30.828125 C 20.191406 -30.828125 22.785156 -30.15625 25.140625 -28.8125 C 27.492188 -27.476562 29.347656 -25.613281 30.703125 -23.21875 C 32.066406 -20.820312 32.75 -18.117188 32.75 -15.109375 Z M 25.96875 -15.109375 C 25.96875 -16.953125 25.578125 -18.597656 24.796875 -20.046875 C 24.023438 -21.503906 22.988281 -22.628906 21.6875 -23.421875 C 20.382812 -24.210938 18.941406 -24.609375 17.359375 -24.609375 C 15.773438 -24.609375 14.332031 -24.210938 13.03125 -23.421875 C 11.738281 -22.628906 10.703125 -21.503906 9.921875 -20.046875 C 9.148438 -18.597656 8.765625 -16.953125 8.765625 -15.109375 C 8.765625 -13.253906 9.148438 -11.609375 9.921875 -10.171875 C 10.703125 -8.742188 11.738281 -7.632812 13.03125 -6.84375 C 14.332031 -6.050781 15.773438 -5.65625 17.359375 -5.65625 C 18.941406 -5.65625 20.382812 -6.050781 21.6875 -6.84375 C 22.988281 -7.632812 24.023438 -8.742188 24.796875 -10.171875 C 25.578125 -11.609375 25.96875 -13.253906 25.96875 -15.109375 Z M 25.96875 -15.109375 "/></g></g></g><g fill="rgb(0%, 0%, 0%)" fill-opacity="1"><g transform="translate(325.499108, 57.431266)"><g><path d="M 19.34375 -30.828125 C 21.945312 -30.828125 24.300781 -30.15625 26.40625 -28.8125 C 28.519531 -27.476562 30.191406 -25.625 31.421875 -23.25 C 32.648438 -20.875 33.265625 -18.175781 33.265625 -15.15625 C 33.265625 -12.144531 32.660156 -9.441406 31.453125 -7.046875 C 30.242188 -4.648438 28.59375 -2.78125 26.5 -1.4375 C 24.40625 -0.101562 22.097656 0.5625 19.578125 0.5625 C 17.765625 0.5625 16.054688 0.195312 14.453125 -0.53125 C 12.847656 -1.269531 11.519531 -2.164062 10.46875 -3.21875 L 10.46875 7.859375 C 10.46875 8.835938 10.144531 9.65625 9.5 10.3125 C 8.863281 10.976562 8.050781 11.3125 7.0625 11.3125 C 6.082031 11.3125 5.269531 10.988281 4.625 10.34375 C 3.988281 9.707031 3.671875 8.878906 3.671875 7.859375 L 3.671875 -26.8125 C 3.671875 -27.789062 3.988281 -28.609375 4.625 -29.265625 C 5.269531 -29.929688 6.082031 -30.265625 7.0625 -30.265625 C 8.050781 -30.265625 8.863281 -29.929688 9.5 -29.265625 C 10.144531 -28.609375 10.46875 -27.789062 10.46875 -26.8125 L 10.46875 -26.578125 C 11.375 -27.710938 12.632812 -28.703125 14.25 -29.546875 C 15.875 -30.398438 17.570312 -30.828125 19.34375 -30.828125 Z M 18.5 -5.65625 C 20.90625 -5.65625 22.878906 -6.5625 24.421875 -8.375 C 25.972656 -10.1875 26.75 -12.445312 26.75 -15.15625 C 26.75 -17.875 25.984375 -20.128906 24.453125 -21.921875 C 22.929688 -23.710938 20.945312 -24.609375 18.5 -24.609375 C 16.039062 -24.609375 14.039062 -23.710938 12.5 -21.921875 C 10.957031 -20.128906 10.1875 -17.875 10.1875 -15.15625 C 10.1875 -12.445312 10.957031 -10.1875 12.5 -8.375 C 14.039062 -6.5625 16.039062 -5.65625 18.5 -5.65625 Z M 18.5 -5.65625 "/></g></g></g><g clip-path="url(#id2)"><path fill="rgb(0%, 0%, 0%)" d="M 67.429688 0.0507812 C 67.507812 0.0546875 67.585938 0.0546875 67.664062 0.0625 C 67.8125 0.0742188 67.957031 0.09375 68.101562 0.121094 C 68.285156 0.160156 68.46875 0.214844 68.644531 0.285156 C 68.832031 0.359375 69.015625 0.453125 69.1875 0.5625 C 69.363281 0.671875 69.527344 0.796875 69.679688 0.9375 C 69.851562 1.097656 70.007812 1.273438 70.144531 1.464844 C 70.269531 1.644531 70.378906 1.835938 70.46875 2.039062 C 70.558594 2.238281 70.628906 2.449219 70.679688 2.664062 C 70.710938 2.816406 70.734375 2.96875 70.75 3.121094 C 70.757812 3.210938 70.761719 3.300781 70.761719 3.390625 C 70.867188 26.128906 70.867188 48.867188 70.761719 71.609375 C 70.761719 71.699219 70.757812 71.789062 70.75 71.875 C 70.734375 72.03125 70.710938 72.183594 70.679688 72.335938 C 70.632812 72.53125 70.570312 72.71875 70.496094 72.902344 C 70.410156 73.105469 70.300781 73.300781 70.179688 73.480469 C 70.054688 73.664062 69.910156 73.835938 69.753906 73.992188 C 69.59375 74.144531 69.421875 74.285156 69.238281 74.40625 C 69.074219 74.511719 68.90625 74.601562 68.730469 74.679688 C 68.546875 74.757812 68.355469 74.816406 68.164062 74.863281 C 68.011719 74.898438 67.859375 74.921875 67.707031 74.933594 C 67.617188 74.941406 67.527344 74.945312 67.4375 74.945312 C 56.226562 75 45.015625 75 33.804688 74.945312 C 33.714844 74.945312 33.625 74.941406 33.539062 74.933594 C 33.382812 74.921875 33.230469 74.898438 33.082031 74.863281 C 32.886719 74.816406 32.695312 74.757812 32.515625 74.679688 C 32.300781 74.585938 32.097656 74.472656 31.90625 74.335938 C 31.726562 74.210938 31.558594 74.066406 31.40625 73.90625 C 31.257812 73.75 31.125 73.578125 31.007812 73.398438 C 30.902344 73.230469 30.808594 73.050781 30.734375 72.867188 C 30.660156 72.6875 30.601562 72.503906 30.5625 72.316406 C 30.527344 72.160156 30.503906 72.003906 30.492188 71.84375 C 30.484375 71.765625 30.484375 71.6875 30.480469 71.609375 C 30.367188 48.871094 30.367188 26.128906 30.480469 3.390625 C 30.484375 3.3125 30.484375 3.234375 30.492188 3.15625 C 30.503906 2.996094 30.527344 2.839844 30.5625 2.683594 C 30.605469 2.484375 30.667969 2.292969 30.746094 2.105469 C 30.828125 1.910156 30.925781 1.726562 31.042969 1.550781 C 31.160156 1.371094 31.296875 1.203125 31.445312 1.050781 C 31.597656 0.898438 31.761719 0.761719 31.9375 0.636719 C 32.113281 0.519531 32.300781 0.414062 32.496094 0.328125 C 32.691406 0.246094 32.894531 0.179688 33.101562 0.132812 C 33.25 0.0976562 33.40625 0.0742188 33.558594 0.0625 C 33.640625 0.0585938 33.722656 0.0546875 33.804688 0.0546875 C 45.011719 0 56.21875 0.0351562 67.429688 0.0546875 Z M 51.664062 68.476562 L 49.574219 68.476562 C 48.75 68.476562 48.085938 69.144531 48.085938 69.96875 L 48.085938 72.070312 C 48.085938 72.894531 48.75 73.5625 49.574219 73.5625 L 51.664062 73.5625 C 52.484375 73.5625 53.152344 72.894531 53.152344 72.070312 L 53.152344 69.96875 C 53.152344 69.144531 52.484375 68.476562 51.664062 68.476562 Z M 51.269531 69.429688 C 51.785156 69.429688 52.203125 69.847656 52.203125 70.363281 L 52.203125 71.675781 C 52.203125 72.191406 51.785156 72.609375 51.269531 72.609375 L 49.964844 72.609375 C 49.449219 72.609375 49.035156 72.191406 49.035156 71.675781 L 49.035156 70.363281 C 49.035156 69.847656 49.449219 69.429688 49.964844 69.429688 Z M 69.585938 5.25 L 31.664062 5.25 C 31.632812 25.898438 31.566406 46.546875 31.648438 67.195312 L 69.589844 67.195312 C 69.628906 46.546875 69.675781 25.902344 69.585938 5.25 Z M 57.253906 2.054688 L 43.984375 2.054688 C 43.824219 2.054688 43.699219 2.183594 43.699219 2.339844 L 43.699219 2.910156 C 43.699219 3.066406 43.824219 3.195312 43.984375 3.195312 L 57.253906 3.195312 C 57.410156 3.195312 57.535156 3.066406 57.535156 2.910156 L 57.535156 2.339844 C 57.535156 2.183594 57.410156 2.054688 57.253906 2.054688 Z M 57.253906 2.054688 " fill-opacity="1" fill-rule="evenodd"/></g><g clip-path="url(#id3)"><path fill="rgb(100%, 74.508667%, 4.309082%)" d="M 39.445312 35.105469 L 25.054688 71.078125 C 24.917969 71.421875 24.699219 71.695312 24.394531 71.902344 C 24.085938 72.109375 23.75 72.210938 23.382812 72.210938 C 23.003906 72.203125 22.664062 72.085938 22.363281 71.859375 C 22.058594 71.636719 21.847656 71.347656 21.726562 70.988281 L 16.621094 55.648438 L 1.222656 50.628906 C 0.863281 50.507812 0.570312 50.296875 0.34375 49.992188 C 0.121094 49.6875 0.00390625 49.347656 -0.0078125 48.96875 C -0.0195312 48.589844 0.0820312 48.242188 0.289062 47.929688 C 0.5 47.613281 0.78125 47.386719 1.132812 47.246094 L 37.105469 32.859375 C 37.441406 32.722656 37.785156 32.691406 38.136719 32.765625 C 38.488281 32.835938 38.792969 33 39.046875 33.253906 C 39.300781 33.511719 39.464844 33.8125 39.535156 34.167969 C 39.609375 34.519531 39.578125 34.863281 39.445312 35.195312 Z M 39.445312 35.105469 " fill-opacity="1" fill-rule="nonzero"/></g></svg>